<svg width="48" height="48" viewBox="0 0 48 48" fill="none" xmlns="http://www.w3.org/2000/svg">
<path fill-rule="evenodd" clip-rule="evenodd" d="M33.3916 4.75642C34.3024 3.91582 35.6976 3.91584 36.6084 4.75642C37.1682 5.27292 38.4674 6.5391 39.641 8.2032C40.7808 9.81928 42 12.0858 42 14.5554C42 18.5031 39.023 21.9998 35 21.9998C30.977 21.9998 28 18.5031 28 14.5554C28 12.0858 29.2192 9.81928 30.359 8.2032C31.5326 6.5391 32.8318 5.27292 33.3916 4.75642ZM35 8.81144C34.5684 9.28442 34.0834 9.8627 33.6278 10.5086C32.6474 11.8988 32 13.3286 32 14.5554C32 16.6214 33.5 17.9998 35 17.9998C36.5 17.9998 38 16.6214 38 14.5554C38 13.3286 37.3526 11.8988 36.3722 10.5086C35.9166 9.8627 35.4316 9.28442 35 8.81144ZM9.4163 10.7268C10.3182 9.9137 11.6818 9.9137 12.5837 10.7268C12.9954 11.0979 13.8 11.8719 14.5164 12.8716C15.1996 13.8251 16 15.2539 16 16.8887C16 19.6423 13.8294 21.9998 11 21.9998C8.17064 21.9998 6 19.6423 6 16.8887C6 15.2539 6.80044 13.8251 7.48364 12.8716C8.20002 11.8719 9.00464 11.0979 9.4163 10.7268ZM11 14.8531C10.9102 14.9649 10.8212 15.0813 10.7351 15.2015C10.2195 15.921 10 16.5078 10 16.8887C10 17.5715 10.5156 17.9998 11 17.9998C11.4844 17.9998 12 17.5715 12 16.8887C12 16.5078 11.7805 15.921 11.2649 15.2015C11.1788 15.0813 11.0898 14.9649 11 14.8531ZM20.4216 18.7227C21.3248 17.919 22.6752 17.919 23.5784 18.7227C24.3054 19.3697 26.3572 21.2788 28.2424 23.842C30.0872 26.35 32 29.7876 32 33.4442C32 39.1454 27.6472 43.9998 22 43.9998C16.3528 43.9998 12 39.1454 12 33.4442C12 29.7876 13.9129 26.35 15.7576 23.842C17.6428 21.2788 19.6945 19.3697 20.4216 18.7227ZM22 22.7316C21.1618 23.5644 20.0358 24.7762 18.9799 26.212C17.2869 28.5138 16 31.0884 16 33.4442C16 37.1934 18.8106 39.9998 22 39.9998C25.1894 39.9998 28 37.1934 28 33.4442C28 31.0884 26.713 28.5138 25.0202 26.212C23.9642 24.7762 22.8382 23.5644 22 22.7316Z" fill="#2BC8FA"/>
</svg>
